<svg xmlns="http://www.w3.org/2000/svg" viewBox="0 0 64 64">
  <defs>
    <linearGradient id="bg" x1="10" y1="6" x2="56" y2="60" gradientUnits="userSpaceOnUse">
      <stop stop-color="#fb7185"/>
      <stop offset="0.48" stop-color="#ec4899"/>
      <stop offset="1" stop-color="#be185d"/>
    </linearGradient>
    <radialGradient id="shine" cx="0" cy="0" r="1" gradientTransform="matrix(30 0 0 30 20 14)" gradientUnits="userSpaceOnUse">
      <stop stop-color="#fff" stop-opacity="0.72"/>
      <stop offset="1" stop-color="#fff" stop-opacity="0"/>
    </radialGradient>
  </defs>
  <rect width="64" height="64" rx="17" fill="url(#bg)"/>
  <rect width="64" height="64" rx="17" fill="url(#shine)"/>
  <path d="M32 8c5.6 7.7 5.6 14.2 0 19.6C26.4 22.2 26.4 15.7 32 8Z" fill="#fff" opacity=".96"/>
  <path d="M50.5 24.5c-6 7.6-12.6 9.2-19.2 4.6 2.4-7.8 8.8-11.2 19.2-4.6Z" fill="#fff" opacity=".9"/>
  <path d="M44.8 49.5c-9.4-1.3-14.4-6.1-13.5-14.2 8-2.1 13.1 2.9 13.5 14.2Z" fill="#fff" opacity=".96"/>
  <path d="M19.2 49.5c.4-11.3 5.5-16.3 13.5-14.2.9 8.1-4.1 12.9-13.5 14.2Z" fill="#fff" opacity=".96"/>
  <path d="M13.5 24.5c10.4-6.6 16.8-3.2 19.2 4.6-6.6 4.6-13.2 3-19.2-4.6Z" fill="#fff" opacity=".9"/>
  <circle cx="32" cy="32" r="6.4" fill="#ffe4e6"/>
  <path d="M42.5 16.5c-6.6 8.5-8 19.8-4.1 33" fill="none" stroke="#fff7ed" stroke-width="4.2" stroke-linecap="round" opacity=".95"/>
  <path d="M40.9 18.2c2.2.7 3.9 2.3 5.1 4.5" fill="none" stroke="#fecdd3" stroke-width="2.5" stroke-linecap="round" opacity=".95"/>
</svg>
