<svg xmlns="http://www.w3.org/2000/svg" viewBox="0 0 64 64">
  <defs>
    <linearGradient id="bg" x1="10" y1="8" x2="54" y2="58" gradientUnits="userSpaceOnUse">
      <stop stop-color="#fb7185"/>
      <stop offset="1" stop-color="#ec4899"/>
    </linearGradient>
    <linearGradient id="petal" x1="18" y1="14" x2="45" y2="51" gradientUnits="userSpaceOnUse">
      <stop stop-color="#fff1f2"/>
      <stop offset="1" stop-color="#ffffff"/>
    </linearGradient>
  </defs>
  <rect width="64" height="64" rx="18" fill="url(#bg)"/>
  <path d="M32 12c5 7 5 13 0 18-5-5-5-11 0-18Z" fill="url(#petal)" opacity=".95"/>
  <path d="M49 25c-5 7-11 9-17 5 2-7 8-10 17-5Z" fill="url(#petal)" opacity=".9"/>
  <path d="M45 47c-8-1-13-5-13-12 7-2 12 2 13 12Z" fill="url(#petal)" opacity=".95"/>
  <path d="M19 47c1-8 6-13 13-12 0 7-5 11-13 12Z" fill="url(#petal)" opacity=".95"/>
  <path d="M15 25c9-5 15-2 17 5-6 4-12 2-17-5Z" fill="url(#petal)" opacity=".9"/>
  <circle cx="32" cy="32" r="6" fill="#fda4af"/>
  <path d="M26 50c8-6 14-6 22-1" fill="none" stroke="#fff" stroke-width="4" stroke-linecap="round" opacity=".9"/>
</svg>
